<svg xmlns="http://www.w3.org/2000/svg" xmlns:xlink="http://www.w3.org/1999/xlink" width="17.782" height="17.784" viewBox="0 0 17.782 17.784">
  <defs>
    <clipPath id="clip-path">
      <rect id="Rectangle_20601" data-name="Rectangle 20601" width="17.782" height="17.784" fill="#2a2a2a"/>
    </clipPath>
  </defs>
  <g id="Groupe_17388" data-name="Groupe 17388" clip-path="url(#clip-path)">
    <path id="Tracé_14185" data-name="Tracé 14185" d="M80.452,0A4.546,4.546,0,1,1,75.91,4.553,4.551,4.551,0,0,1,80.452,0" transform="translate(-71.979 -0.001)" fill="#2a2a2a"/>
    <path id="Tracé_14186" data-name="Tracé 14186" d="M11.085,189.63a4.011,4.011,0,0,0-.652,1.521,6.765,6.765,0,0,0-.092.864.434.434,0,0,1-.137.32c-.479.471-.948.953-1.429,1.421a1.574,1.574,0,0,0-.505,1.211c.01.522,0,1.044,0,1.592H1.5a1.4,1.4,0,0,1-1.5-1.5,11.717,11.717,0,0,1,.035-1.49,3.328,3.328,0,0,1,1.365-2.154,8.207,8.207,0,0,1,2.954-1.443,15.431,15.431,0,0,1,6.486-.387c.07.01.139.027.24.047" transform="translate(0 -179.602)" fill="#2a2a2a"/>
    <path id="Tracé_14187" data-name="Tracé 14187" d="M175.631,182.807c0-.271.007-.543,0-.814a.825.825,0,0,1,.273-.654c.573-.56,1.134-1.131,1.7-1.694a.341.341,0,0,0,.113-.3,3.308,3.308,0,1,1,3.741,2.946c-.273.034-.553,0-.829.019a.38.38,0,0,0-.226.1c-.575.566-1.149,1.135-1.713,1.711a.835.835,0,0,1-.653.272c-.568-.011-1.137,0-1.7,0a.631.631,0,0,1-.7-.708c0-.291,0-.581,0-.872m4.485-3.791a.894.894,0,1,0,.9-.891.886.886,0,0,0-.9.891" transform="translate(-166.534 -166.607)" fill="#2a2a2a"/>
  </g>
</svg>
