<svg xmlns="http://www.w3.org/2000/svg" width="16.809" height="16.809" viewBox="0 0 16.809 16.809">
  <path id="Icon_feather-message-circle" data-name="Icon feather-message-circle" d="M19.809,11.729a7.127,7.127,0,0,1-.765,3.232,7.229,7.229,0,0,1-6.464,4,7.127,7.127,0,0,1-3.232-.765L4.5,19.809l1.616-4.848a7.127,7.127,0,0,1-.765-3.232,7.229,7.229,0,0,1,4-6.464A7.127,7.127,0,0,1,12.58,4.5H13a7.212,7.212,0,0,1,6.8,6.8Z" transform="translate(-3.75 -3.75)" fill="none" stroke="#2a2a2a" stroke-linecap="round" stroke-linejoin="round" stroke-width="1.5"/>
</svg>
