<svg xmlns="http://www.w3.org/2000/svg" width="20.389" height="21.853" viewBox="0 0 20.389 21.853">
  <path id="Tracé_25938" data-name="Tracé 25938" d="M11.613,2.49a.728.728,0,0,0-1.159.174l-4.584,8.66-2.5,2.5a2.906,2.906,0,0,0-.732,2.841,2.9,2.9,0,0,0,4.072,4.072,2.763,2.763,0,0,0,2.253-.291l1.877,1.876a1.821,1.821,0,0,0,2.575-2.575l-1.8-1.8.438-.438,8.66-4.585a.728.728,0,0,0,.174-1.159Zm-7.726,17a1.454,1.454,0,0,1-.372-1.4l1.774,1.774a1.453,1.453,0,0,1-1.4-.372Zm2.576-.515L4.4,16.913a1.459,1.459,0,0,1,0-2.06l2.061-2.061,4.121,4.121L8.522,18.973A1.458,1.458,0,0,1,6.462,18.974Zm5.924,1.8a.368.368,0,0,1,0,.515.37.37,0,0,1-.515,0l-1.8-1.8.515-.515Zm-.638-4.759-4.39-4.391L11.28,4.218l7.878,7.877ZM14.387,3.186V1.729a.728.728,0,1,1,1.457,0V3.186a.728.728,0,1,1-1.457,0Zm8.013,5.1a.728.728,0,0,1-.728.728H20.215a.728.728,0,1,1,0-1.457h1.457A.728.728,0,0,1,22.4,8.285Zm-4.886-2.4a.728.728,0,0,1,0-1.03L18.971,3.4A.728.728,0,1,1,20,4.429L18.544,5.886a.728.728,0,0,1-1.03,0Z" transform="translate(-2.011 -1.001)" fill="#2a2a2a"/>
</svg>
