<svg xmlns="http://www.w3.org/2000/svg" width="24.605" height="16.773" viewBox="0 0 24.605 16.773">
  <g id="g3149" transform="translate(0.501 0.582)">
    <g id="Groupe_18163" data-name="Groupe 18163" transform="translate(0 0)">
      <g id="g3157" transform="translate(10.396 14.184)">
        <path id="path3159" d="M-61.184,0c.33.31.169.85-.148,1.167a.933.933,0,0,1-1.3,0l-.881-.823" transform="translate(63.512)" fill="none" stroke="#2a2a2a" stroke-linecap="round" stroke-linejoin="round" stroke-width="1"/>
      </g>
      <g id="g3161" transform="translate(8.727 12.779)">
        <path id="path3163" d="M-23.251-8.185a1.3,1.3,0,0,1,.276-.2.782.782,0,0,1,.969,1.22l-.654.588c-.945.848-1.97-.367-1.213-1.05" transform="translate(24.135 8.496)" fill="none" stroke="#2a2a2a" stroke-linecap="round" stroke-linejoin="round" stroke-width="1"/>
      </g>
      <g id="g3165" transform="translate(13.582 7.553)">
        <path id="path3167" d="M0,0,3.468,3.084c1.394,1.239-.089,2.706-1.3,1.382" fill="none" stroke="#2a2a2a" stroke-linecap="round" stroke-linejoin="round" stroke-width="1"/>
      </g>
      <g id="g3169" transform="translate(13.892 10.179)">
        <path id="path3171" d="M0,0,1.861,1.839a.921.921,0,0,1,0,1.3.969.969,0,0,1-1.344,0L.425,3.044" fill="none" stroke="#2a2a2a" stroke-linecap="round" stroke-linejoin="round" stroke-width="1"/>
      </g>
      <g id="g3173" transform="translate(12.276 11.861)">
        <path id="path3175" d="M-18.209,0l1.36,1.362c.644.646-.256,2.229-1.471,1.089L-18.9,1.9" transform="translate(18.901)" fill="none" stroke="#2a2a2a" stroke-linecap="round" stroke-linejoin="round" stroke-width="1"/>
      </g>
      <g id="g3177" transform="translate(15.108)">
        <path id="path3179" d="M-218.225-144.629l-4.017-5.146a.936.936,0,0,0-1.3-.169l-2.629,2a.909.909,0,0,0-.166,1.283l4.016,5.146a.935.935,0,0,0,1.3.168l2.63-2A.91.91,0,0,0-218.225-144.629Z" transform="translate(226.527 150.131)" fill="none" stroke="#2a2a2a" stroke-linecap="round" stroke-linejoin="round" stroke-width="1"/>
      </g>
      <g id="g3181" transform="translate(9.214 3.373)">
        <path id="path3183" d="M-260.206-131.089a5.537,5.537,0,0,1-2.063,2.276m-3.468-3.084-1-.91-1.6.794c-1.345.594-2.831-1.07-.689-2.46l1.549-1a4.773,4.773,0,0,1,3.457-.5" transform="translate(270.106 136.076)" fill="none" stroke="#2a2a2a" stroke-linecap="round" stroke-linejoin="round" stroke-width="1"/>
      </g>
      <g id="g3185" transform="translate(4.192 3.6)">
        <path id="path3187" d="M0-139.838l.822,1.126m6.624-5.944-3.285-.5" transform="translate(0 145.158)" fill="none" stroke="#2a2a2a" stroke-linecap="round" stroke-linejoin="round" stroke-width="1"/>
      </g>
      <g id="g3189" transform="translate(6.052 9.709)">
        <path id="path3191" d="M-43.907-8.075c1.052-.929,2.176.479,1.352,1.2L-44.113-5.5c-.847.748-1.946-.582-1.236-1.266a1.106,1.106,0,0,0,.082-.081C-45.236-6.873-43.907-8.075-43.907-8.075Z" transform="translate(45.577 8.382)" fill="none" stroke="#2a2a2a" stroke-linecap="round" stroke-linejoin="round" stroke-width="1"/>
      </g>
      <g id="g3193" transform="translate(4.731 8.255)">
        <path id="path3195" d="M-7.453-47.1l1.664-1.479c1.051-.932,2.152.448,1.338,1.183l-.294.265-1.544,1.393C-7.16-44.95-8.266-46.378-7.453-47.1Z" transform="translate(7.737 48.892)" fill="none" stroke="#2a2a2a" stroke-linecap="round" stroke-linejoin="round" stroke-width="1"/>
      </g>
      <g id="g3197" transform="translate(7.389 10.996)">
        <path id="path3199" d="M-41.585-8.269c1.051-.931,2.135.43,1.321,1.165l-1.438,1.3a.886.886,0,0,1-1.133-1.364l.164-.144" transform="translate(43.167 8.583)" fill="none" stroke="#2a2a2a" stroke-linecap="round" stroke-linejoin="round" stroke-width="1"/>
      </g>
      <g id="g3209" transform="translate(2.063 3.294)">
        <path id="path3211" d="M0-.184.006-.191" transform="translate(0 0.191)" fill="none" stroke="#2a2a2a" stroke-linecap="round" stroke-linejoin="round" stroke-width="1"/>
      </g>
      <g id="g3213" transform="translate(0 0.197)">
        <path id="path3215" d="M-85.451-41.612l.958-1.227a.935.935,0,0,1,1.3-.168l2.63,2a.91.91,0,0,1,.166,1.283l-4.017,5.146a.936.936,0,0,1-1.3.169l-2.629-2a.908.908,0,0,1-.166-1.283l.683-.875" transform="translate(88.702 43.195)" fill="none" stroke="#2a2a2a" stroke-linecap="round" stroke-linejoin="round" stroke-width="1"/>
      </g>
    </g>
  </g>
</svg>
