<svg xmlns="http://www.w3.org/2000/svg" width="379" height="65" viewBox="0 0 379 65">
  <g id="Groupe_18216" data-name="Groupe 18216" transform="translate(-37 -179)">
    <rect id="Rectangle_261" data-name="Rectangle 261" width="379" height="65" rx="32.5" transform="translate(37 179)" fill="#ffc919"/>
    <path id="Icon_awesome-play" data-name="Icon awesome-play" d="M15.992,8.091,2.728.25A1.8,1.8,0,0,0,0,1.806V17.486a1.807,1.807,0,0,0,2.728,1.556L15.992,11.2a1.807,1.807,0,0,0,0-3.113Z" transform="translate(61.56 201.998)" fill="#fff"/>
    <path id="Tracé_561" data-name="Tracé 561" d="M5289.537,206.847v8.99" transform="translate(-5192.037 0.653)" fill="none" stroke="#fff" stroke-linecap="round" stroke-width="3"/>
    <path id="Tracé_576" data-name="Tracé 576" d="M5289.537,206.847v8.99" transform="translate(-5130.02 0.653)" fill="none" stroke="#fff" stroke-linecap="round" stroke-width="3"/>
    <path id="Tracé_584" data-name="Tracé 584" d="M5289.537,206.847v8.99" transform="translate(-5071.678 0.653)" fill="none" stroke="#cea044" stroke-linecap="round" stroke-width="3"/>
    <path id="Tracé_563" data-name="Tracé 563" d="M5289.537,206.847v5.065" transform="translate(-5173.511 1.653)" fill="none" stroke="#fff" stroke-linecap="round" stroke-width="3"/>
    <path id="Tracé_574" data-name="Tracé 574" d="M5289.537,206.847v5.065" transform="translate(-5115.169 1.653)" fill="none" stroke="#fff" stroke-linecap="round" stroke-width="3"/>
    <path id="Tracé_582" data-name="Tracé 582" d="M5289.537,206.847v5.065" transform="translate(-5056.827 1.653)" fill="none" stroke="#cea044" stroke-linecap="round" stroke-width="3"/>
    <path id="Tracé_562" data-name="Tracé 562" d="M5289.537,206.847v15.977" transform="translate(-5185.037 -3.347)" fill="none" stroke="#fff" stroke-linecap="round" stroke-width="3"/>
    <path id="Tracé_575" data-name="Tracé 575" d="M5289.537,206.847v15.977" transform="translate(-5122.594 -3.347)" fill="none" stroke="#fff" stroke-linecap="round" stroke-width="3"/>
    <path id="Tracé_583" data-name="Tracé 583" d="M5289.537,206.847v15.977" transform="translate(-5064.252 -3.347)" fill="none" stroke="#cea044" stroke-linecap="round" stroke-width="3"/>
    <path id="Tracé_567" data-name="Tracé 567" d="M5289.537,206.847v19.611" transform="translate(-5144.87 -5.347)" fill="none" stroke="#fff" stroke-linecap="round" stroke-width="3"/>
    <path id="Tracé_570" data-name="Tracé 570" d="M5289.537,206.847v19.611" transform="translate(-5086.528 -5.347)" fill="none" stroke="#fff" stroke-linecap="round" stroke-width="3"/>
    <path id="Tracé_578" data-name="Tracé 578" d="M5289.537,206.847v19.611" transform="translate(-5028.187 -5.347)" fill="none" stroke="#cea044" stroke-linecap="round" stroke-width="3"/>
    <path id="Tracé_565" data-name="Tracé 565" d="M5289.537,206.847v11.339" transform="translate(-5159.721 -1.347)" fill="none" stroke="#fff" stroke-linecap="round" stroke-width="3"/>
    <path id="Tracé_572" data-name="Tracé 572" d="M5289.537,206.847v11.339" transform="translate(-5101.379 -1.347)" fill="none" stroke="#fff" stroke-linecap="round" stroke-width="3"/>
    <path id="Tracé_580" data-name="Tracé 580" d="M5289.537,206.847v11.339" transform="translate(-5043.037 -1.347)" fill="none" stroke="#cea044" stroke-linecap="round" stroke-width="3"/>
    <path id="Tracé_566" data-name="Tracé 566" d="M5289.537,206.847v5.065" transform="translate(-5152.295 1.653)" fill="none" stroke="#fff" stroke-linecap="round" stroke-width="3"/>
    <path id="Tracé_571" data-name="Tracé 571" d="M5289.537,206.847v5.065" transform="translate(-5093.953 1.653)" fill="none" stroke="#fff" stroke-linecap="round" stroke-width="3"/>
    <path id="Tracé_579" data-name="Tracé 579" d="M5289.537,206.847v5.065" transform="translate(-5035.611 1.653)" fill="none" stroke="#cea044" stroke-linecap="round" stroke-width="3"/>
    <path id="Tracé_564" data-name="Tracé 564" d="M5289.537,206.847v8.99" transform="translate(-5166.085 0.653)" fill="none" stroke="#fff" stroke-linecap="round" stroke-width="3"/>
    <path id="Tracé_573" data-name="Tracé 573" d="M5289.537,206.847v8.99" transform="translate(-5107.743 0.653)" fill="none" stroke="#fff" stroke-linecap="round" stroke-width="3"/>
    <path id="Tracé_581" data-name="Tracé 581" d="M5289.537,206.847v8.99" transform="translate(-5049.401 0.653)" fill="none" stroke="#cea044" stroke-linecap="round" stroke-width="3"/>
    <path id="Tracé_568" data-name="Tracé 568" d="M5289.537,206.847v8.99" transform="translate(-5137.444 0.653)" fill="none" stroke="#fff" stroke-linecap="round" stroke-width="3"/>
    <path id="Tracé_569" data-name="Tracé 569" d="M5289.537,206.847v8.99" transform="translate(-5079.103 0.653)" fill="none" stroke="#fff" stroke-linecap="round" stroke-width="3"/>
    <path id="Tracé_577" data-name="Tracé 577" d="M5289.537,206.847v8.99" transform="translate(-5020.761 0.653)" fill="none" stroke="#cea044" stroke-linecap="round" stroke-width="3"/>
    <rect id="Rectangle_262" data-name="Rectangle 262" width="41" height="28" rx="14" transform="translate(358 198)" fill="#ffb31b"/>
    <text id="_1x" data-name="1x" transform="translate(372 217)" fill="#fff" font-size="14" font-family="Poppins-Medium, Poppins" font-weight="500" letter-spacing="0.081em"><tspan x="0" y="0">1x</tspan></text>
  </g>
</svg>
