<svg xmlns="http://www.w3.org/2000/svg" width="101" height="101" viewBox="0 0 101 101">
  <g id="Groupe_18203" data-name="Groupe 18203" transform="translate(-247 -415)">
    <rect id="Rectangle_141" data-name="Rectangle 141" width="101" height="101" rx="50.5" transform="translate(247 415)" fill="#e83fd7"/>
    <g id="pay" transform="translate(274.39 447.525)">
      <path id="Tracé_210" data-name="Tracé 210" d="M15.768,27.907a3.042,3.042,0,1,0-3.042,3.043,3.042,3.042,0,0,0,3.042-3.043Zm-3.042,1.435a1.435,1.435,0,1,1,1.435-1.435,1.434,1.434,0,0,1-1.435,1.435Z" transform="translate(-5.114 -10.359)" fill="#fff"/>
      <path id="Tracé_211" data-name="Tracé 211" d="M46.179,31.693V12.135a5.316,5.316,0,0,0-5.31-5.31H11.3a5.32,5.32,0,0,0-5.318,5.31v5.9H5.53A1.532,1.532,0,0,0,4,19.566v9.751a1.627,1.627,0,0,0,1.98,1.531v5.9a5.32,5.32,0,0,0,5.318,5.31H31.783a9.036,9.036,0,1,0,14.4-10.367ZM11.3,8.433h29.57a3.706,3.706,0,0,1,3.7,3.7v1.058H7.588V12.135a3.71,3.71,0,0,1,3.71-3.7Zm-5.69,11.21H11.94a4.651,4.651,0,0,1,4.615,4.982A4.619,4.619,0,0,1,11.94,29.24H5.608Zm6.332,11.2c8.288-.249,8.279-12.567,0-12.813H7.588V14.8H44.571V30.484a9.108,9.108,0,0,0-12.533,3.46H7.588v-3.1Zm-.642,9.6a3.71,3.71,0,0,1-3.71-3.7v-1.2H31.354a8.975,8.975,0,0,0-.138,4.9ZM39.982,45.7a7.446,7.446,0,0,1-7.438-7.437c.4-9.863,14.475-9.861,14.874,0A7.446,7.446,0,0,1,39.982,45.7Z" transform="translate(-4 -6.825)" fill="#fff"/>
      <path id="Tracé_212" data-name="Tracé 212" d="M49.359,44.524V41.356a.8.8,0,1,0-1.608,0v3.517a.8.8,0,0,0,.254.587l3.655,3.419a.8.8,0,1,0,1.1-1.175Z" transform="translate(-12.573 -13.433)" fill="#fff"/>
    </g>
  </g>
</svg>